<svg
  width="85"
  height="39"
  viewBox="0 0 85 39"
  fill="none"
  xmlns="http://www.w3.org/2000/svg"
>
<path
    d="M79.5326 26.5071C78.4812 26.5071 77.511 26.3517 76.6217 26.0414C75.7329 25.7311 74.9674 25.2699 74.3286 24.6549C73.6887 24.0409 73.1925 23.2754 72.842 22.3573C72.4902 21.4387 72.3154 20.3784 72.3154 19.1759C72.3154 18.0542 72.4818 17.0388 72.8187 16.1273C73.1538 15.2158 73.6406 14.4337 74.2805 13.7822C74.8949 13.155 75.6565 12.6705 76.5647 12.3292C77.4729 11.9868 78.4651 11.8159 79.5419 11.8159C80.1364 11.8159 80.673 11.8491 81.1514 11.9155C81.6293 11.9824 82.0706 12.0686 82.4761 12.1765C82.9003 12.2975 83.2847 12.4315 83.6298 12.5808C83.9756 12.729 84.2775 12.8673 84.5369 12.9939V16.4214H84.1187C83.9417 16.271 83.7183 16.0907 83.4489 15.8839C83.1801 15.6753 82.8753 15.4712 82.5331 15.2688C82.1846 15.067 81.8079 14.8982 81.4036 14.7589C80.9977 14.6207 80.564 14.5509 80.1022 14.5509C79.589 14.5509 79.1011 14.6317 78.6399 14.7921C78.1775 14.9536 77.75 15.2208 77.3578 15.5941C76.9844 15.9536 76.6813 16.4303 76.4501 17.0243C76.219 17.6184 76.1044 18.339 76.1044 19.1847C76.1044 20.0305 76.2283 20.8086 76.4793 21.4038C76.7282 21.9966 77.0441 22.4646 77.4241 22.8053C77.8101 23.1526 78.2404 23.4015 78.7156 23.5486C79.19 23.6979 79.6585 23.7726 80.121 23.7726C80.5834 23.7726 81.0026 23.7062 81.4367 23.5729C81.8693 23.4413 82.2702 23.2621 82.6375 23.0353C82.9478 22.8529 83.2359 22.6582 83.502 22.4496C83.768 22.2412 83.9859 22.0624 84.1569 21.9109H84.5369V25.2914C84.1818 25.4501 83.8438 25.5989 83.5204 25.7371C83.1979 25.8771 82.8594 25.9976 82.5049 26.0988C82.0431 26.2321 81.6088 26.3328 81.2034 26.4024C80.7986 26.4722 80.2411 26.507 79.5326 26.507V26.5071Z"
    fill="#D2AA41"
    style="fill:#D2AA41;fill:color(display-p3 0.8235 0.6667 0.2549);fill-opacity:1;"
  />
<path
    d="M70.6113 21.7876C70.6113 23.1803 70.0206 24.3124 68.8404 25.1824C67.659 26.0525 66.0555 26.4883 64.0302 26.4883C62.8588 26.4883 61.8383 26.3854 60.9672 26.1791C60.0967 25.9739 59.2819 25.7129 58.522 25.396V22.0056H58.9213C59.6746 22.6074 60.5181 23.0697 61.4523 23.3927C62.3858 23.7152 63.283 23.8772 64.1441 23.8772C64.3654 23.8772 64.6568 23.8579 65.018 23.8191C65.3791 23.7816 65.6722 23.7185 65.9007 23.63C66.1789 23.5155 66.409 23.374 66.5899 23.2024C66.7697 23.0316 66.8598 22.7782 66.8598 22.4431C66.8598 22.1328 66.7288 21.8652 66.4659 21.6406C66.2038 21.416 65.8189 21.2435 65.3122 21.1229C64.7808 20.9962 64.2177 20.8774 63.6271 20.7662C63.0346 20.6556 62.4788 20.5156 61.9601 20.3442C60.7703 19.9581 59.9137 19.4332 59.391 18.7723C58.8689 18.1102 58.6084 17.2888 58.6084 16.3082C58.6084 14.9913 59.198 13.9162 60.3788 13.0832C61.5596 12.2514 63.0768 11.8354 64.9329 11.8354C65.8626 11.8354 66.783 11.9251 67.6911 12.1054C68.5993 12.2862 69.3863 12.5125 70.0506 12.7845V16.0423H69.6617C69.092 15.5865 68.3935 15.2049 67.5677 14.8985C66.7414 14.591 65.8979 14.4373 65.0368 14.4373C64.7326 14.4373 64.43 14.4583 64.1303 14.4987C63.8295 14.5401 63.5397 14.6176 63.2614 14.7321C63.0141 14.8267 62.8018 14.9705 62.6248 15.1629C62.4473 15.3565 62.3593 15.5766 62.3593 15.8233C62.3593 16.1972 62.5014 16.4837 62.7863 16.6839C63.0711 16.8819 63.6093 17.0645 64.4008 17.2293C64.9195 17.3365 65.4184 17.4416 65.8969 17.5423C66.3742 17.6441 66.8886 17.7835 67.4394 17.9605C68.5224 18.3155 69.3211 18.7973 69.8365 19.409C70.3531 20.0202 70.6113 20.8133 70.6113 21.7878V21.7876Z"
    fill="#D2AA41"
    style="fill:#D2AA41;fill:color(display-p3 0.8235 0.6667 0.2549);fill-opacity:1;"
  />
<path
    d="M56.3477 26.2326H46.1206V12.0913H56.3477V14.8269H49.7478V17.2676H55.8738V20.0022H49.7478V23.4971H56.3477V26.2326Z"
    fill="#D2AA41"
    style="fill:#D2AA41;fill:color(display-p3 0.8235 0.6667 0.2549);fill-opacity:1;"
  />
<path
    d="M24.721 19.427C24.721 16.5006 22.3488 14.1284 19.4229 14.1284C16.4971 14.1284 14.1255 16.5005 14.1255 19.427C14.1255 22.3535 16.4971 24.725 19.4229 24.725C22.3488 24.725 24.721 22.3528 24.721 19.427Z"
    fill="#D2AA41"
    style="fill:#D2AA41;fill:color(display-p3 0.8235 0.6667 0.2549);fill-opacity:1;"
  />
<path
    d="M0 0V38.8531H38.8521V0H0ZM35.3217 35.3206H3.52647V3.52592H35.3217V35.3206ZM19.4266 5.29902C11.6237 5.29902 5.29868 11.6241 5.29868 19.427C5.29868 27.2298 11.6237 33.5549 19.4266 33.5549C27.2296 33.5549 33.5553 27.2294 33.5553 19.427C33.5553 11.6246 27.2296 5.29902 19.4266 5.29902ZM19.4266 28.2499C14.5517 28.2499 10.5994 24.2987 10.5994 19.4239C10.5994 14.5491 14.5517 10.5966 19.4266 10.5966C24.3016 10.5966 28.2528 14.5478 28.2528 19.4239C28.2528 24.2999 24.3004 28.2499 19.4266 28.2499Z"
    fill="#D2AA41"
    style="fill:#D2AA41;fill:color(display-p3 0.8235 0.6667 0.2549);fill-opacity:1;"
  />
<path
    d="M51.4945 32.8019C51.7733 33.1094 51.9878 33.4844 52.1361 33.928C52.2849 34.3727 52.3584 34.8782 52.3584 35.4418C52.3584 36.0055 52.2837 36.511 52.1316 36.9567C51.9795 37.4036 51.7671 37.7752 51.4945 38.0717C51.2124 38.382 50.8784 38.6149 50.4939 38.7708C50.1089 38.9267 49.6704 39.0053 49.1765 39.0053C48.6826 39.0053 48.2578 38.9251 47.864 38.7658C47.4697 38.6065 47.1351 38.3759 46.8591 38.0716C46.5831 37.7686 46.3713 37.3957 46.222 36.955C46.0738 36.5131 45.9985 36.0087 45.9985 35.4417C45.9985 34.8747 46.0721 34.3825 46.2198 33.94C46.3669 33.4975 46.5815 33.1182 46.8636 32.8018C47.1335 32.5009 47.4687 32.2719 47.8685 32.1121C48.2684 31.9523 48.7048 31.8726 49.1766 31.8726C49.6484 31.8726 50.1085 31.9534 50.4995 32.1138C50.8901 32.2753 51.2219 32.5043 51.4945 32.8018V32.8019ZM51.4121 35.4417C51.4121 34.5524 51.2124 33.866 50.8143 33.3837C50.4145 32.9003 49.8708 32.6591 49.1816 32.6591C48.4924 32.6591 47.9394 32.9003 47.5423 33.3837C47.1446 33.866 46.9459 34.5524 46.9459 35.4417C46.9459 36.3311 47.1485 37.0275 47.5533 37.5042C47.9577 37.9809 48.5007 38.2187 49.1816 38.2187C49.8625 38.2187 50.4039 37.9809 50.8077 37.5042C51.2103 37.0275 51.4122 36.3404 51.4122 35.4417H51.4121Z"
    fill="white"
    style="fill:white;fill-opacity:1;"
  />
<path
    d="M59.5931 38.864H58.4665L55.2193 32.7381V38.864H54.3687V32.0151H55.7802L58.742 37.608V32.0151H59.5932V38.864H59.5931Z"
    fill="white"
    style="fill:white;fill-opacity:1;"
  />
<path
    d="M66.3113 38.864H61.979V32.0151H62.8894V38.0537H66.3113V38.864Z"
    fill="white"
    style="fill:white;fill-opacity:1;"
  />
<path
    d="M70.2012 38.8639H67.4966V38.1643H68.3937V32.7142H67.4966V32.0151H70.2012V32.7142H69.304V38.1643H70.2012V38.8639Z"
    fill="white"
    style="fill:white;fill-opacity:1;"
  />
<path
    d="M77.5399 38.864H76.4127L73.1661 32.7381V38.864H72.3154V32.0151H73.727L76.6882 37.608V32.0151H77.54V38.864H77.5399Z"
    fill="white"
    style="fill:white;fill-opacity:1;"
  />
<path
    d="M84.4373 38.864H79.9258V32.0151H84.4373V32.8249H80.8362V34.7015H84.4373V35.5113H80.8362V38.0538H84.4373V38.8641V38.864Z"
    fill="white"
    style="fill:white;fill-opacity:1;"
  />
</svg>
