<?xml version="1.0" encoding="UTF-8" standalone="no"?>
<svg
   id="TEXTO"
   viewBox="0 0 331.46 79.02"
   version="1.1"
   sodipodi:docname="Placard_pt.svg"
   inkscape:version="1.2.1 (9c6d41e410, 2022-07-14)"
   xmlns:inkscape="http://www.inkscape.org/namespaces/inkscape"
   xmlns:sodipodi="http://sodipodi.sourceforge.net/DTD/sodipodi-0.dtd"
   xmlns="http://www.w3.org/2000/svg"
   xmlns:svg="http://www.w3.org/2000/svg">
  <sodipodi:namedview
     id="namedview1355"
     pagecolor="#ffffff"
     bordercolor="#000000"
     borderopacity="0.25"
     inkscape:showpageshadow="2"
     inkscape:pageopacity="0.0"
     inkscape:pagecheckerboard="0"
     inkscape:deskcolor="#d1d1d1"
     showgrid="false"
     inkscape:zoom="4.9025525"
     inkscape:cx="163.89422"
     inkscape:cy="39.877187"
     inkscape:window-width="2400"
     inkscape:window-height="1261"
     inkscape:window-x="-9"
     inkscape:window-y="1"
     inkscape:window-maximized="1"
     inkscape:current-layer="TEXTO" />
  <defs
     id="defs1308">
    <style
       id="style1274">.cls-1{fill:url(#linear-gradient-2);}.cls-2{fill:#c52127;}.cls-3{clip-path:url(#clippath-1);}.cls-4{clip-path:url(#clippath);}.cls-5{fill:none;}.cls-6{fill:url(#linear-gradient);}</style>
    <clipPath
       id="clippath">
      <path
         class="cls-5"
         d="M326.24,36.67s-.07,15.16-13.6,28.39c-13.52,13.24-26.89,14.12-37.15,12.48,0,0-.38-.26-.59,.15-.21,.41,.88,.6,.88,.6,0,0,20.57,5.72,40.74-13.04,13.05-12.13,14.43-28.59,14.43-28.59h-4.72Zm-71.97-8.28s-.45,.86-.52,1.27c-.12,.67,.14,.96,.34,.53,0,0,12.56-28.44,44.44-26.47,12.57,.78,21.81,10.4,24.05,15.22h4.99S320.19,.76,298,.02c-.49-.02-.98-.02-1.46-.02-21.4,0-36.11,15.79-42.28,28.4"
         id="path1276" />
    </clipPath>
    <linearGradient
       id="linear-gradient"
       x1="-3209.63"
       y1="1791.18"
       x2="-3208.76"
       y2="1791.18"
       gradientTransform="translate(282217.19 157398.71) scale(87.85 -87.85)"
       gradientUnits="userSpaceOnUse">
      <stop
         offset="0"
         stop-color="#cfd9bc"
         id="stop1279" />
      <stop
         offset=".1"
         stop-color="#c9d5b2"
         id="stop1281" />
      <stop
         offset=".27"
         stop-color="#b8ca99"
         id="stop1283" />
      <stop
         offset=".49"
         stop-color="#9eb970"
         id="stop1285" />
      <stop
         offset=".71"
         stop-color="#80a541"
         id="stop1287" />
      <stop
         offset="1"
         stop-color="#80a541"
         id="stop1289" />
    </linearGradient>
    <clipPath
       id="clippath-1">
      <path
         class="cls-5"
         d="M284.91,7.22c-13.18,3.42-28.08,15.68-31.36,35.14-.78,4.63-1.08,18.8,9.64,26.03,10.55,7.11,24.85,5.77,36.06-1.96,0,0,.3-.07,.2-.43-.1-.36-.74-.1-1.22,.24-.49,.34-18.73,12.56-33.77-.11-8.2-6.91-10.49-21.86-.81-37.89,3.85-6.37,20.7-24.64,40.66-18.22,0,0,1.66,.92,2.07-.29,.29-.84-.55-1.34-1.15-1.64-.62-.31-4.98-2.03-11.33-2.03-2.68,0-5.72,.31-8.99,1.15"
         id="path1292" />
    </clipPath>
    <linearGradient
       id="linear-gradient-2"
       x1="-3286.74"
       y1="1747.27"
       x2="-3285.87"
       y2="1747.27"
       gradientTransform="translate(92351.46 -173135.05) rotate(-90) scale(52.69 -52.69)"
       gradientUnits="userSpaceOnUse">
      <stop
         offset="0"
         stop-color="#cfd9bc"
         id="stop1295" />
      <stop
         offset=".13"
         stop-color="#c9d5b2"
         id="stop1297" />
      <stop
         offset=".35"
         stop-color="#b8ca99"
         id="stop1299" />
      <stop
         offset=".63"
         stop-color="#9eb970"
         id="stop1301" />
      <stop
         offset=".91"
         stop-color="#80a541"
         id="stop1303" />
      <stop
         offset="1"
         stop-color="#80a541"
         id="stop1305" />
    </linearGradient>
  </defs>
  <rect
     style="display:none;fill:#000000"
     id="rect1357"
     width="366.33978"
     height="115.45007"
     x="-27.740652"
     y="-22.845242" />
  <path
     class="cls-2"
     d="M171.86,19.76c0-4.67,0-9.34,0-14.02,0-1.98,1.38-3.39,3.35-3.39,3.77,0,7.55-.01,11.32,.01,2.14,.01,4.27,.19,6.24,1.16,2.18,1.07,3.47,2.85,4.04,5.17,.49,2.01,.6,4.06,.59,6.12-.05,5.52-.04,11.03-.05,16.55,0,.99-.26,1.93-.39,2.9-.07,.51-.37,.67-.89,.67-7.79,0-15.57,0-23.36,.01-.62,0-.9-.18-.9-.86,.02-4.78,.01-9.55,.01-14.33h.03Zm10.25,1.77v8.47c0,1.02,.34,1.36,1.38,1.36,.55,0,1.11,0,1.66,0,1.47,0,2.23-.73,2.27-2.22,.02-.76,0-1.53,0-2.29,0-4.17,.01-8.34,0-12.5,0-1.68-.89-2.51-2.57-2.47-.45,.01-.9,0-1.34,0-.98-.02-1.4,.38-1.4,1.37,0,2.77,0,5.54,0,8.31"
     id="path1310" />
  <path
     class="cls-2"
     d="M.01,19.74C.01,15.12,0,10.5,.01,5.88c0-2.27,1.28-3.53,3.51-3.52,3.67,0,7.34,0,11.01,.01,2.23,.01,4.43,.19,6.47,1.21,1.6,.8,2.73,2.03,3.42,3.66,.82,1.93,1.03,3.98,1.04,6.04,.02,5.62,0,11.25,0,16.87,0,1.41-.29,2.78-.49,4.16-.09,.61-.57,.59-1.04,.59-4.09,0-8.19-.02-12.28-.01-3.64,0-7.29,.01-10.93,.07-.81,0-.75-.45-.75-.96v-14.26H.01Zm10.16,1.82h.01v8.32c0,1.09,.38,1.47,1.47,1.47,.66,0,1.32,0,1.98,0,.88,0,1.41-.41,1.72-1.23,.26-.67,.16-1.35,.16-2.04,0-4.52,.01-9.03,.01-13.55,0-1.55-.31-2.15-1.52-2.53-.97-.31-2-.2-2.98-.07-.53,.07-.89,.55-.88,1.23,.03,2.8,.01,5.6,.01,8.4"
     id="path1312" />
  <path
     class="cls-2"
     d="M208.86,19.72c0-4.67,.04-9.35-.02-14.02-.02-1.59,1.45-3.44,3.31-3.38,3.61,.12,7.23,.02,10.85,.05,2.3,.02,4.58,.21,6.72,1.2,2.04,.95,3.3,2.56,4.04,4.63,.65,1.84,.74,3.77,.74,5.7,.01,6.78,0,13.57,.02,20.35,0,.61-.28,.68-.78,.68-2.88,0-5.75,0-8.63,.04-.74,.01-.72-.39-.72-.9,.01-4.12,.01-8.24,.02-12.36,0-2.46,0-4.91,0-7.37,0-1.67-.9-2.52-2.57-2.48-.5,.01-1-.02-1.5,0-.82,.02-1.2,.41-1.2,1.23,0,7,.02,13.99,.05,20.99,0,.63-.2,.85-.81,.85-2.93,0-5.86,0-8.79,.02-.59,0-.78-.25-.78-.82,.01-4.8,0-9.61,0-14.41h.05"
     id="path1314" />
  <path
     class="cls-2"
     d="M208.83,50.72c0-4.7,.01-9.4-.01-14.1,0-.77,.48-.7,.95-.7,1.8,0,3.59,.04,5.38,.05,1.06,0,2.11,0,3.17-.04,.66-.02,.85,.25,.85,.9-.03,6.76-.03,13.52-.03,20.28,0,1.06,.26,1.31,1.31,1.3,.55,0,1.11-.03,1.66-.02,1.55,.02,2.3-.72,2.3-2.3,0-2.98,0-5.97,0-8.95,0-3.51,0-7.02-.03-10.53,0-.63,.27-.68,.76-.68,2.83,.01,5.65,.03,8.48,0,.67,0,.86,.22,.86,.86,0,5.54,.01,11.09,.02,16.63,0,1.82,.03,3.64-.09,5.46-.11,1.59-.47,3.13-1.17,4.56-1.14,2.33-3.12,3.56-5.6,4.05-4.21,.83-8.48,.32-12.72,.45-.87,.03-1.74,0-2.61,.01-2.05,.03-3.45-1.33-3.45-3.37v-13.86h-.02Z"
     id="path1316" />
  <path
     class="cls-2"
     d="M142.31,35.94c1.24,0,2.48,.02,3.72,0,.63-.01,.83,.2,.78,.84-.2,2.58-.36,5.16-.52,7.74-.07,1.14,.15,1.35,1.29,1.31,.47-.01,.95-.02,1.42,0,.98,.06,1.43-.37,1.29-1.35-.35-2.59-.45-5.2-.54-7.82-.02-.65,.23-.74,.78-.74,2.45,.02,4.91,.02,7.37,0,.65,0,.89,.27,.96,.88,.39,3.54,.72,7.09,1.22,10.61,.45,3.21,.79,6.44,1.14,9.66,.29,2.64,.78,5.27,.86,7.94,.04,1.27-.6,2.69-2.05,2.83-1.88,.18-3.8,.31-5.66-.07-1.41-.28-2.29-1.55-2.38-2.98-.19-2.84-.42-5.68-.63-8.53-.05-.71-.37-1.07-1.16-1.04-1.29,.06-2.59,.05-3.88,0-.7-.03-1.06,.27-1.14,.91-.12,1.02-.23,2.05-.27,3.07-.06,1.82-.2,3.64-.36,5.45-.18,2.08-1.62,3.37-3.67,3.3-1.19-.04-2.38-.04-3.57,0-2.06,.1-3.26-1.97-2.96-3.51,.65-3.34,.85-6.75,1.27-10.13,.51-4.14,.98-8.28,1.5-12.41,.23-1.77,.43-3.56,.61-5.34,.06-.52,.32-.66,.79-.66,1.27,.01,2.53,0,3.8,0h0Z"
     id="path1318" />
  <path
     class="cls-2"
     d="M171.84,50.72c0-4.7,0-9.4,0-14.1,0-.49,.2-.68,.64-.69,.42,0,.84,.02,1.27,.02,7.29,0,14.58-.01,21.87-.02,.26,0,.56-.1,.72,.18,.18,.33-.05,.61-.2,.88-.7,1.25-1.73,2.22-3,2.82-.82,.39-.85,.89-.65,1.58,.37,1.29,.77,2.57,1.13,3.86,.87,3.06,1.73,6.13,2.61,9.19,.81,2.83,1.66,5.65,2.47,8.48,.23,.79,.43,1.58,.65,2.36,.32,1.14-.59,2.46-1.93,2.58-1.91,.16-3.86,.22-5.77-.03-2.11-.28-2.91-1.9-3.35-3.73-.82-3.43-1.58-6.87-2.41-10.3-.95-3.97-1.95-7.93-2.92-11.9-.06-.23-.06-.47-.09-.7-.05-.29-.18-.54-.51-.48-.25,.05-.34,.26-.32,.55,.17,2.53,.07,5.06,.08,7.6,0,5.15,0,10.3,0,15.45,0,2.52-1.16,3.65-3.7,3.62-1.03-.01-2.06,0-3.09,0-2.07,.01-3.49-1.39-3.49-3.45,0-4.6,0-9.19,0-13.78h-.01Z"
     id="path1320" />
  <path
     class="cls-2"
     d="M70.71,35.93h3.56c1,0,1.05,.05,.98,1.03-.17,2.5-.51,4.99-.58,7.5-.04,1.23,.09,1.38,1.32,1.36,.5,0,1,0,1.5,0,.96,.02,1.31-.31,1.24-1.27-.16-2.16-.34-4.31-.5-6.47-.03-.45-.01-.9-.1-1.34-.13-.68,.23-.86,.79-.84,2.51,.1,5.02,.06,7.52,.02,.59,0,.84,.27,.85,.79,.08,2.49,.58,4.92,.81,7.39,.3,3.25,.78,6.49,1.17,9.74,.44,3.74,.89,7.49,1.3,11.23,.14,1.29-.85,2.64-2.27,2.78-1.77,.17-3.59,.26-5.36-.06-1.42-.26-2.32-1.27-2.48-2.71-.19-1.81-.29-3.63-.42-5.44-.08-1.05-.14-2.11-.23-3.16-.08-1.01-.38-1.27-1.4-1.26-1.13,0-2.27,.04-3.4,.02-1.14-.02-1.45,.23-1.51,1.39-.11,1.92-.17,3.85-.31,5.77-.08,1.07-.1,2.16-.44,3.2-.5,1.5-1.62,2.33-3.2,2.34-1.29,0-2.59,0-3.88,0-1.89,0-3.14-1.53-2.88-3.42,.48-3.42,.84-6.85,1.25-10.28,.32-2.64,.6-5.29,.93-7.94,.39-3.16,.76-6.33,1.05-9.5,.07-.77,.37-.92,1.03-.9,1.21,.04,2.43,.01,3.64,.01h0Z"
     id="path1322" />
  <path
     class="cls-2"
     d="M99.73,47.18c0-3.46,.02-6.92-.01-10.38,0-.65,.2-.9,.85-.89,2.88,.02,5.76,.03,8.63,.02,.62,0,.8,.25,.8,.87-.03,6.68-.03,13.36-.03,20.04,0,.58,.02,1.16,.31,1.69,.39,.73,.91,1.23,1.79,1.17,.66-.04,1.34,.18,1.98-.31,.76-.58,1.01-1.31,1-2.2,0-3.64,0-7.29,0-10.93,0-2.21,1.48-3.66,3.66-3.61,1.03,.02,2.06,.02,3.09,0,1.75-.05,3.21,1.23,3.21,2.96-.01,4.73,.28,9.47-.14,14.17-.37,4.2-2.67,7.26-7.02,8.44-3.5,.95-6.97,.92-10.48,.06-3.98-.97-6.6-3.87-7.29-7.91-.59-3.39-.26-6.79-.36-10.19-.03-1,0-2.01,0-3.01h0Z"
     id="path1324" />
  <path
     class="cls-2"
     d="M99.73,23.41c0-3.4-.07-6.81,.02-10.22,.07-2.59,.41-5.15,1.94-7.39,1.18-1.73,2.79-2.81,4.74-3.49,3.05-1.06,6.16-.96,9.3-.67,2.19,.2,4.17,.92,5.86,2.29,2.33,1.89,3.31,4.49,3.39,7.38,.12,4.09,.02,8.19,.07,12.28,.02,1.79-1.56,3.17-3.13,3.02-1.2-.11-2.43-.03-3.64-.02-1.78,0-3.21-1.41-3.22-3.19,0-3.41,0-6.81,0-10.22,0-1.16-.44-2-1.55-2.5-1.21-.55-2.96,.16-3.36,1.43-.23,.72-.19,1.46-.19,2.2,.01,6.6,.02,13.2,.05,19.8,0,.74-.42,.8-.97,.8-2.51,0-5.02,0-7.52,0-1.8,0-1.79,0-1.79-1.84,0-3.22,0-6.44,0-9.66"
     id="path1326" />
  <path
     class="cls-2"
     d="M148.81,23.91c-.16-2.81-.31-5.63-.47-8.55-.43,.48-.41,.99-.41,1.45-.05,3.56-.22,7.12-.51,10.67-.19,2.21-.37,4.42-.37,6.64,0,.71-.42,.81-.99,.8-2.11-.01-4.22-.01-6.33-.01-.24,0-.47,0-.71,.01-1.17,.05-1.22-.03-1.04-1.16,.55-3.62,.92-7.27,1.33-10.91,.33-2.93,.71-5.86,1.06-8.79,.31-2.62,.7-5.23,.85-7.85,.12-2.16,1.66-4.05,4.04-3.89,2.05,.14,4.12,.11,6.17,.01,2.1-.1,3.51,1.33,3.73,3.19,.42,3.4,.82,6.81,1.23,10.21,.42,3.53,.9,7.06,1.22,10.61,.23,2.6,.76,5.16,.94,7.77,.04,.64-.1,.82-.75,.81-2.43-.03-4.86-.02-7.28,.02-.68,.01-.97-.24-1.01-.89-.1-1.79-.2-3.58-.31-5.37-.06-.91-.13-1.82-.2-2.73,.06-.69,.05-1.38-.16-2.04"
     id="path1328" />
  <path
     class="cls-2"
     d="M76.22,19.61c-.08,.87-.11,1.74-.06,2.61v.05c-.06,.64-.1,1.27,0,1.91,0,.28-.02,.57-.03,.86-.06,.78-.12,1.56-.18,2.33-.27,2.2-.53,4.4-.56,6.62,0,.72-.27,.95-.99,.94-2.43-.03-4.86-.02-7.28,.02-.64,0-.82-.15-.74-.82,.4-3.11,.73-6.23,1.11-9.34,.42-3.53,.88-7.06,1.3-10.6,.33-2.78,.65-5.55,.91-8.33,.2-2.16,1.71-3.66,4.02-3.53,2.13,.12,4.28,.02,6.41,.03,1.68,0,2.81,.9,3.32,2.5,.42,1.33,.34,2.72,.52,4.07,.46,3.53,.93,7.06,1.32,10.59,.42,3.82,.84,7.65,1.34,11.46,.14,1.09,.03,2.21,.38,3.29,.14,.44-.07,.65-.59,.65-2.51-.02-5.02-.02-7.52,.01-.7,0-.9-.3-.94-.94-.29-4.85-.87-9.67-.82-14.54,0-.1-.03-.21-.05-.31,.08-.69,.1-1.38-.09-2.07,.23-1.13,.03-2.22-.3-3.29-.38,1.23-.73,2.46-.44,3.75-.17,.46-.13,.93-.08,1.41-.12,.2-.11,.4-.01,.6v.05l.04,.02Z"
     id="path1330" />
  <path
     class="cls-2"
     d="M34.88,50.75c0-4.7,0-9.39-.01-14.09,0-.57,.19-.73,.73-.73,2.93,.02,5.86,.01,8.79,0,.52,0,.7,.21,.7,.71-.01,6.73-.01,13.46-.03,20.19,0,1.35,.25,1.6,1.62,1.58,1.21-.02,2.43,.06,3.64-.04,1.6-.13,3.26,1.31,3.21,2.97-.04,1.29,.1,2.59-.05,3.87-.2,1.7-1.31,2.73-3.01,2.74-4.17,.03-8.34,.03-12.51,0-1.77-.02-3.05-1.41-3.06-3.26-.01-4.64,0-9.29,0-13.94h0Z"
     id="path1332" />
  <path
     class="cls-2"
     d="M.02,50.81C.02,46.19,.04,41.57,0,36.95c0-.79,.22-1.05,1.02-1.05,7.47,.03,14.94,.03,22.42,.04,.28,0,.65-.13,.8,.17,.16,.32-.17,.58-.34,.82-1.58,2.31-3.97,3.15-6.57,3.59-1.91,.33-3.84,.19-5.77,.17-.99,0-1.4,.34-1.4,1.34,0,3.77,.02,7.55,.03,11.32,0,3.7,0,7.39,.01,11.09,0,1.11-.16,2.14-1.17,2.86-.38,.27-.77,.5-1.21,.53-1.81,.13-3.64,.26-5.43-.06-1.39-.25-2.33-1.46-2.36-2.89-.04-2.03-.02-4.06-.03-6.1,0-2.67,0-5.33,0-8h.01Z"
     id="path1334" />
  <path
     class="cls-2"
     d="M34.88,19.68c0-4.64,0-9.29,0-13.93,0-2.13,1.26-3.39,3.38-3.39,1.29,0,2.59,0,3.88,.02,1.54,.03,2.71,1.09,2.86,2.62,.08,.86,.06,1.74,.06,2.61,0,8.63,0,17.26-.01,25.89,0,1.43,0,1.42-1.42,1.42-2.66,0-5.33,0-7.99,.06-.79,.02-.76-.43-.76-.96,0-4.78,0-9.55,0-14.33h0Z"
     id="path1336" />
  <g
     id="g1352">
    <path
       d="M276.28,63.36c-1.1,3.01-3.34,4.27-6.44,3.64-1.79-.37-3.59-2.42-3.59-4.24-.02-9.24-.15-18.49,.07-27.72,.11-4.75,2.24-8.82,5.79-12.08,1.37-1.26,2.93-2.19,4.61-2.98,2.45-1.16,5.03-1.67,7.7-1.74,1.95-.05,3.86,.41,5.73,1.01,4.04,1.31,7.25,3.79,9.45,7.33,2.57,4.12,3.63,8.61,2.49,13.53-1.05,4.52-3.39,8.14-7.06,10.87-2.55,1.9-5.46,2.97-8.64,3.36-3.02,.37-5.87-.2-8.7-1.12-.4-.13-.57-.78-1.13-.49-.4,.04-.24,.34-.24,.54,.07,3.36,.11,6.73-.02,10.09m7.75-19.09c4.53,.16,8.11-2.89,8.3-7.61,.17-4.45-2.79-8.03-7.75-8.22-4.41-.17-7.86,3.01-8.19,7.4-.33,4.44,3.21,8.38,7.64,8.43"
       id="path1338"
       style="fill:#ffffff" />
    <path
       d="M316.04,44.66c-.04,1.85,1.15,3.66,2.85,4.35,.47,.19,.94,.05,1.41,.04,.18,0,.39-.06,.48,.16,.07,.17-.07,.29-.15,.43-1.02,1.69-1.78,3.52-2.85,5.19-.74,1.15-1.59,2.22-2.39,3.33-.27,.37-.71,.44-1.07,.22-2.04-1.19-4.05-2.43-5.49-4.38-1.44-1.95-2.44-4.1-2.87-6.51-.33-1.81-.27-3.63-.27-5.45,0-8.08,.02-16.15,0-24.23,0-2.61,1.17-4.45,3.52-5.36,1.6-.62,3.26-.35,4.7,.75,1.15,.88,1.81,2.03,2.1,3.42v6.8c-.2,.67,.26,.69,.71,.69,2.16,0,4.32,.02,6.48,0,1.74-.02,3.09,.63,4.06,2.12,1.2,1.85,.57,4.66-1.26,5.86-.96,.63-1.94,.87-3.05,.83-2.08-.08-4.16,.1-6.24-.1-.22-.02-.42,.02-.57,.21-.3,.31-.16,.7-.16,1.05-.02,1.42,0,2.85,.01,4.27,.01,2.1,.03,4.21,.05,6.32"
       id="path1340"
       style="fill:#ffffff" />
    <path
       d="M244.5,63.05c-2.31-.16-3.95-1.84-4.02-4.18-.07-2.16,1.94-4.14,4.06-4.15,2.22,0,4.11,1.92,4.12,4.14,.01,2.46-2.02,4.15-4.16,4.18"
       id="path1342"
       style="fill:#ffffff" />
    <g
       class="cls-4"
       clip-path="url(#clippath)"
       id="g1346">
      <rect
         class="cls-6"
         x="239.77"
         y="-12.19"
         width="105.05"
         height="108.4"
         transform="translate(8.6 123.98) rotate(-24.3)"
         id="rect1344" />
    </g>
    <g
       class="cls-3"
       clip-path="url(#clippath-1)"
       id="g1350">
      <rect
         class="cls-1"
         x="237.98"
         y="8.22"
         width="83.18"
         height="65.98"
         transform="translate(192.33 310) rotate(-80.4)"
         id="rect1348" />
    </g>
  </g>
</svg>
